<svg xmlns="http://www.w3.org/2000/svg" height="18" width="18" fill="#FFFFFF" style=""><rect id="backgroundrect" width="100%" height="100%" x="0" y="0" fill="none" stroke="none" class="" style=""/><g class="currentLayer" style=""><title>Layer 1</title><path d="M12.85042626871098,11.292808179300643 h-0.8121469401825339 l-0.2878495484191259,-0.2771871098555613 C12.757903199576262,9.845275494499377 13.364443319459419,8.325879484920748 13.364443319459419,6.673023015041289 C13.364443319459419,2.9874610728877156 10.372864084103501,0 6.682221659729709,0 S0,2.9874610728877156 0,6.673023015041289 S2.991579235355916,13.346046030082578 6.682221659729709,13.346046030082578 c1.6551349034099747,0 3.1766253736253542,-0.6057051659806716 4.348584249331797,-1.611791712863819 l0.27756920740415714,0.2874532991094711 v0.8110289510588645 l5.140170507484392,5.122828437700929 L17.9803164351804,16.42590280625548 l-5.129890166469424,-5.133094626954837 zm-6.16820460898127,0 C4.122416747002482,11.292808179300643 2.0560682029937567,9.229304139264798 2.0560682029937567,6.673023015041289 S4.122416747002482,2.053237850781935 6.682221659729709,2.053237850781935 S11.308375116465662,4.116741890817779 11.308375116465662,6.673023015041289 S9.242026572456936,11.292808179300643 6.682221659729709,11.292808179300643 z" id="svg_2" class=""/></g></svg>